# xmcd
# 
# Track frame offsets:
#     150
#     23393
#     36049
#     52371
#     61745
#     78247
#     92322
#     105829
#     119299
#     131962
#     145392
#     176153
#     189070
#     205115
#     216848
#     230115
#     246484
# 
# Disc length: 3470
# 
# Revision: 0
# Processed by: cddbd v1.5.2PL0 Copyright (c) Steve Scherf et al.
# Submitted via: BonkEnc v1.0.15
# 
DISCID=e80d8c11
DTITLE=Johnny Hallyday -  Johnny History - cd5 - La musique que j'aime 1973-19746
DYEAR=2012
DGENRE=Blues
TTITLE0=La musique que j'aime
TTITLE1=Le sorcier, le maudit
TTITLE2=La prison des orphelins
TTITLE3=J'ai besoin d'un ami
TTITLE4=Le feu
TTITLE5=Moraya
TTITLE6=J'ai un problème
TTITLE7=Te tuer d'amour
TTITLE8=Noel interdit
TTITLE9=Je construis des murs autour de mes rêves
TTITLE10=Je t'aime, je t'aime, je t'aime
TTITLE11=Mon amour perdu
TTITLE12=Trop belle, trop joile
TTITLE13=Danger d'amour
TTITLE14=J'ai pleuré sur ma guitare
TTITLE15=Johnny Rider
TTITLE16=Prends ma vie
EXTD=
EXTT0=
EXTT1=
EXTT2=
EXTT3=
EXTT4=
EXTT5=
EXTT6=
EXTT7=
EXTT8=
EXTT9=
EXTT10=
EXTT11=
EXTT12=
EXTT13=
EXTT14=
EXTT15=
EXTT16=
PLAYORDER=
